<?xml version="1.0" standalone="no"?>
<!DOCTYPE svg PUBLIC "-//W3C//DTD SVG 20010904//EN"
 "http://www.w3.org/TR/2001/REC-SVG-20010904/DTD/svg10.dtd">
<svg version="1.0" xmlns="http://www.w3.org/2000/svg"
 width="360.000000pt" height="360.000000pt" viewBox="0 0 360.000000 360.000000"
 preserveAspectRatio="xMidYMid meet">
<metadata>
Created by potrace 1.11, written by Peter Selinger 2001-2013
</metadata>
<g transform="translate(0.000000,360.000000) scale(0.100000,-0.100000)"
fill="#000000" stroke="none">
<path d="M2305 3505 c-27 -7 -75 -25 -105 -39 -30 -14 -60 -26 -66 -26 -21 0
-95 -61 -88 -72 4 -7 3 -8 -4 -4 -22 14 -181 -141 -164 -160 4 -4 1 -4 -5 0
-12 6 -84 -84 -123 -152 -8 -15 -18 -29 -21 -32 -16 -13 -49 -92 -43 -102 4
-6 3 -8 -3 -5 -19 12 -111 -229 -99 -259 3 -8 2 -13 -3 -10 -11 7 -24 -60 -15
-76 4 -6 3 -8 -3 -5 -12 8 -33 -152 -33 -254 0 -40 5 -112 11 -161 9 -71 15
-89 30 -93 10 -4 23 -3 29 0 12 7 2 204 -11 221 -5 6 -6 21 -3 35 3 13 9 65
14 114 4 50 15 122 24 160 9 39 14 81 11 95 -4 19 -3 21 5 10 8 -13 10 -13 11
3 3 38 17 74 82 207 119 242 295 433 475 514 24 11 39 22 33 25 -18 12 264 19
359 9 51 -5 173 -58 207 -90 13 -12 36 -21 53 -21 16 0 30 -4 30 -9 0 -5 -4
-6 -10 -3 -24 15 -7 -14 30 -50 22 -21 40 -33 40 -26 0 7 5 9 10 6 6 -4 8 -11
4 -16 -3 -6 15 -41 41 -80 148 -217 151 -513 8 -713 -72 -100 -182 -176 -335
-232 -48 -18 -240 -28 -266 -15 -30 14 -86 33 -104 34 -9 1 -14 6 -11 11 4 5
-1 7 -11 3 -10 -4 -15 -3 -11 3 3 5 -7 16 -22 24 -31 16 -109 95 -138 139 -17
26 -19 27 -36 11 -11 -10 -19 -14 -19 -9 0 4 8 13 17 20 15 11 15 15 1 36 -45
70 -62 141 -62 265 -1 119 -1 121 36 195 21 41 51 90 68 107 17 18 28 37 25
42 -3 6 1 7 9 4 20 -7 20 5 2 29 -21 27 -44 11 -106 -73 -73 -98 -100 -179
-99 -300 0 -57 6 -111 14 -135 8 -22 15 -46 15 -54 0 -20 66 -145 93 -179 45
-56 142 -142 155 -137 7 3 11 1 8 -3 -10 -16 67 -55 142 -73 93 -23 184 -24
272 -4 36 8 75 17 86 19 25 4 151 72 156 84 2 5 17 16 33 24 17 8 29 20 27 27
-1 7 1 10 6 7 14 -8 97 84 137 152 67 115 89 300 58 492 -9 53 -41 150 -53
160 -3 3 -17 23 -30 45 -30 49 -121 165 -130 165 -4 0 -19 11 -34 25 -16 15
-33 22 -44 19 -13 -5 -14 -4 -3 4 11 8 5 15 -27 36 -23 14 -45 26 -50 26 -5 0
-31 11 -59 25 -110 52 -304 71 -418 40z m82 -11 c-3 -3 -12 -4 -19 -1 -8 3 -5
6 6 6 11 1 17 -2 13 -5z m208 -14 c-11 -5 -29 -8 -40 -8 -16 0 -15 2 5 8 34
11 60 11 35 0z m150 -50 c-3 -5 -12 -10 -18 -10 -7 0 -6 4 3 10 19 12 23 12
15 0z m-662 -66 c-4 -12 -8 -13 -14 -3 -9 15 -2 32 11 24 5 -3 6 -13 3 -21z
m-97 -59 c-9 -9 -16 -13 -16 -8 0 12 22 34 28 28 2 -2 -3 -11 -12 -20z m-46
-68 c0 -2 -9 -14 -20 -27 -11 -13 -20 -18 -20 -12 0 6 7 18 16 26 15 15 24 20
24 13z m-64 -85 c-18 -16 -18 -16 -6 6 6 13 14 21 18 18 3 -4 -2 -14 -12 -24z
m-36 -26 c0 -3 -4 -8 -10 -11 -5 -3 -10 -1 -10 4 0 6 5 11 10 11 6 0 10 -2 10
-4z m1227 -28 c-3 -8 -6 -5 -6 6 -1 11 2 17 5 13 3 -3 4 -12 1 -19z m-1283
-54 c3 -8 2 -12 -4 -9 -6 3 -10 10 -10 16 0 14 7 11 14 -7z m-20 -30 c3 -8 2
-12 -4 -9 -6 3 -10 10 -10 16 0 14 7 11 14 -7z m-26 -74 c-7 -11 -16 -20 -20
-20 -5 0 -3 9 4 20 7 11 16 20 20 20 5 0 3 -9 -4 -20z m-44 -58 c3 -5 -1 -9
-9 -9 -8 0 -15 4 -15 9 0 4 4 8 9 8 6 0 12 -4 15 -8z m-13 -36 c5 3 9 1 9 -4
0 -5 -9 -12 -20 -15 -22 -6 -23 -6 -13 19 4 11 8 13 11 6 2 -7 8 -10 13 -6z
m1476 -68 c-3 -7 -5 -2 -5 12 0 14 2 19 5 13 2 -7 2 -19 0 -25z m-1180 -10
c-3 -7 -5 -2 -5 12 0 14 2 19 5 13 2 -7 2 -19 0 -25z m15 -65 c-3 -16 -7 -22
-10 -15 -4 13 4 42 11 42 2 0 2 -12 -1 -27z m1155 -15 c-3 -8 -6 -5 -6 6 -1
11 2 17 5 13 3 -3 4 -12 1 -19z m-20 -100 c-3 -8 -6 -5 -6 6 -1 11 2 17 5 13
3 -3 4 -12 1 -19z m-1570 -130 c-3 -8 -6 -5 -6 6 -1 11 2 17 5 13 3 -3 4 -12
1 -19z m1487 -17 c3 -5 -1 -11 -9 -14 -9 -4 -12 -1 -8 9 6 16 10 17 17 5z
m-945 -42 c-16 -10 -23 -4 -14 10 3 6 11 8 17 5 6 -4 5 -9 -3 -15z m911 1 c0
-5 -5 -10 -11 -10 -5 0 -7 5 -4 10 3 6 8 10 11 10 2 0 4 -4 4 -10z m-866 -76
c3 -8 2 -12 -4 -9 -6 3 -10 10 -10 16 0 14 7 11 14 -7z m791 6 c3 -5 1 -10 -4
-10 -6 0 -11 5 -11 10 0 6 2 10 4 10 3 0 8 -4 11 -10z m-745 -30 c0 -5 -4 -10
-10 -10 -5 0 -10 5 -10 10 0 6 5 10 10 10 6 0 10 -4 10 -10z m40 -40 c0 -5 -4
-10 -10 -10 -5 0 -10 5 -10 10 0 6 5 10 10 10 6 0 10 -4 10 -10z m25 0 c3 -5
1 -10 -4 -10 -6 0 -11 5 -11 10 0 6 2 10 4 10 3 0 8 -4 11 -10z m595 0 c0 -5
-4 -10 -10 -10 -5 0 -10 5 -10 10 0 6 5 10 10 10 6 0 10 -4 10 -10z m-45 -10
c-3 -5 -12 -10 -18 -10 -7 0 -6 4 3 10 19 12 23 12 15 0z m-481 -59 c-7 -8
-35 9 -29 19 4 6 11 5 20 -3 7 -6 11 -14 9 -16z m463 13 c-3 -3 -12 -4 -19 -1
-8 3 -5 6 6 6 11 1 17 -2 13 -5z m-234 -31 c-7 -2 -21 -2 -30 0 -10 3 -4 5 12
5 17 0 24 -2 18 -5z m-971 -95 c-8 -8 -9 -4 -5 13 4 13 8 18 11 10 2 -7 -1
-18 -6 -23z"/>
<path d="M2394 3251 c-29 -5 -57 -12 -64 -16 -6 -4 -22 -8 -36 -10 -14 -1 -31
-8 -37 -15 -10 -10 -8 -12 6 -7 11 4 16 3 12 -4 -4 -6 -14 -8 -21 -5 -14 5
-86 -33 -98 -52 -8 -14 19 -46 33 -38 6 4 9 12 6 17 -3 5 0 6 8 3 8 -3 32 6
52 21 80 54 239 76 330 45 93 -31 199 -123 236 -203 7 -15 15 -24 20 -22 4 3
11 0 15 -6 5 -8 3 -9 -6 -4 -10 6 -11 3 -6 -16 20 -66 26 -99 26 -150 0 -64
-23 -152 -51 -191 -12 -16 -15 -28 -9 -31 6 -3 5 -4 -2 -3 -14 3 -94 -64 -91
-76 2 -4 -4 -5 -11 -2 -8 3 -25 0 -38 -7 -13 -7 -27 -14 -33 -15 -5 -1 -31 -7
-58 -13 -26 -6 -66 -8 -90 -5 -50 8 -125 44 -151 73 -10 11 -23 18 -29 14 -6
-4 -7 -1 -3 6 5 7 -4 29 -20 52 -37 54 -47 180 -18 237 25 50 56 78 112 103
68 31 130 29 175 -5 69 -53 97 -159 51 -197 -11 -9 -12 -14 -3 -20 7 -4 -20
-7 -59 -7 -41 0 -69 4 -66 10 8 13 -15 38 -31 32 -7 -3 -16 -12 -19 -19 -6
-15 30 -65 46 -65 6 0 5 8 -4 18 -25 29 -29 40 -17 48 7 4 9 3 6 -3 -4 -6 2
-22 13 -35 11 -14 17 -28 13 -31 -14 -14 50 -28 81 -17 40 14 79 47 71 60 -4
6 -3 10 2 9 22 -4 31 4 42 42 32 105 -66 243 -186 263 -94 16 -229 -66 -273
-167 -23 -53 -36 -137 -21 -137 6 0 8 -7 5 -15 -10 -26 4 -63 23 -61 10 2 12
1 6 -1 -14 -5 -16 -14 -7 -37 3 -9 11 -13 17 -9 5 3 7 1 3 -5 -11 -18 12 -60
59 -105 54 -52 116 -85 179 -93 54 -8 169 13 159 29 -3 6 -1 7 5 3 11 -7 88
29 99 47 4 6 0 8 -11 4 -10 -4 -15 -3 -11 4 4 5 15 7 25 4 26 -8 111 80 147
152 23 48 29 73 31 150 3 66 0 100 -11 125 -8 18 -18 45 -21 59 -7 33 -87 159
-101 159 -6 0 -15 8 -22 18 -18 30 -113 87 -167 100 -67 17 -151 22 -212 13z
m280 -76 c11 -8 16 -15 10 -15 -5 0 -18 7 -28 15 -11 8 -16 15 -10 15 5 0 18
-7 28 -15z m-459 -15 c3 -5 1 -10 -4 -10 -6 0 -11 5 -11 10 0 6 2 10 4 10 3 0
8 -4 11 -10z m515 6 c0 -3 -4 -8 -10 -11 -5 -3 -10 -1 -10 4 0 6 5 11 10 11 6
0 10 -2 10 -4z m25 -26 c3 -6 -1 -7 -9 -4 -18 7 -21 14 -7 14 6 0 13 -4 16
-10z m70 -108 c-3 -3 -11 0 -18 7 -9 10 -8 11 6 5 10 -3 15 -9 12 -12z m-480
-92 c3 -6 -1 -7 -9 -4 -18 7 -21 14 -7 14 6 0 13 -4 16 -10z m-30 -20 c3 -5
-1 -10 -9 -10 -9 0 -16 5 -16 10 0 6 4 10 9 10 6 0 13 -4 16 -10z m332 -72
c-3 -8 -6 -5 -6 6 -1 11 2 17 5 13 3 -3 4 -12 1 -19z m-396 -11 c-10 -9 -11
-8 -5 6 3 10 9 15 12 12 3 -3 0 -11 -7 -18z m416 -69 c-3 -7 -5 -2 -5 12 0 14
2 19 5 13 2 -7 2 -19 0 -25z m230 -100 c-3 -7 -5 -2 -5 12 0 14 2 19 5 13 2
-7 2 -19 0 -25z m-50 -100 c-3 -8 -6 -5 -6 6 -1 11 2 17 5 13 3 -3 4 -12 1
-19z m-552 -8 c3 -5 1 -10 -4 -10 -6 0 -11 5 -11 10 0 6 2 10 4 10 3 0 8 -4
11 -10z m483 -40 c-7 -10 -14 -17 -17 -15 -4 4 18 35 25 35 2 0 -1 -9 -8 -20z
m-478 -10 c0 -5 -2 -10 -4 -10 -3 0 -8 5 -11 10 -3 6 -1 10 4 10 6 0 11 -4 11
-10z m124 -69 c-2 -3 -12 3 -22 13 -16 17 -16 18 5 5 12 -7 20 -15 17 -18z
m266 19 c-8 -5 -19 -10 -25 -10 -5 0 -3 5 5 10 8 5 20 10 25 10 6 0 3 -5 -5
-10z m-310 -10 c0 -5 -2 -10 -4 -10 -3 0 -8 5 -11 10 -3 6 -1 10 4 10 6 0 11
-4 11 -10z m227 -16 c-3 -3 -12 -4 -19 -1 -8 3 -5 6 6 6 11 1 17 -2 13 -5z"/>
<path d="M849 2979 c-52 -7 -90 -19 -204 -62 -63 -24 -173 -116 -202 -169 -15
-27 -30 -48 -34 -48 -11 0 -65 -137 -79 -201 -16 -74 -8 -248 14 -314 22 -64
109 -237 149 -295 33 -48 235 -250 250 -250 5 0 43 -22 85 -50 42 -27 82 -50
89 -50 8 0 35 -11 61 -24 26 -13 78 -33 115 -46 72 -23 97 -18 97 21 0 23 -20
33 -88 48 -130 27 -359 173 -474 302 -85 96 -178 239 -178 275 0 8 -8 31 -19
52 -79 156 -37 426 88 571 52 60 74 75 191 134 62 30 71 32 198 35 151 4 199
-7 283 -64 28 -19 54 -34 59 -34 4 0 27 -26 52 -57 139 -179 136 -486 -7 -650
-20 -24 -41 -43 -46 -43 -5 0 -26 -11 -47 -23 -69 -44 -134 -59 -235 -55 -92
4 -129 15 -212 65 -127 77 -193 300 -135 457 26 69 83 134 150 170 48 26 62
29 155 29 93 0 107 -2 148 -26 110 -65 163 -207 126 -340 -31 -114 -184 -187
-292 -139 -66 29 -101 87 -102 169 0 81 23 114 89 127 67 13 99 0 110 -46 11
-42 -2 -65 -37 -70 -30 -4 -35 -43 -8 -58 27 -14 81 8 104 43 36 55 8 154 -53
190 -63 37 -172 14 -232 -50 -55 -58 -65 -156 -24 -245 31 -67 41 -77 96 -108
38 -21 58 -25 130 -25 76 0 93 4 150 32 54 26 71 41 102 89 72 112 70 259 -5
377 -39 60 -70 86 -150 122 -119 55 -238 42 -389 -41 -71 -39 -142 -160 -160
-269 -23 -148 40 -326 147 -416 117 -98 313 -132 470 -80 101 33 131 50 184
106 180 190 200 478 49 711 -55 85 -110 132 -203 172 -118 51 -221 67 -326 51z"/>
<path d="M2697 2123 c-17 -16 -2 -43 59 -108 264 -281 298 -722 78 -1036 -40
-58 -163 -189 -177 -189 -4 0 -25 -13 -45 -29 -52 -40 -104 -65 -201 -96 -127
-40 -223 -51 -324 -38 -106 15 -269 69 -332 112 -51 34 -88 37 -93 8 -6 -29
16 -46 133 -103 93 -45 128 -57 210 -69 123 -19 196 -19 316 -1 110 17 147 29
254 85 441 231 605 781 364 1226 -37 67 -82 127 -150 197 -42 44 -75 58 -92
41z"/>
<path d="M1940 2104 c-66 -12 -161 -37 -165 -45 -3 -4 -12 -6 -19 -3 -15 6
-114 -36 -136 -57 -8 -8 -31 -23 -52 -33 -43 -23 -143 -115 -183 -169 -39 -53
-75 -134 -69 -155 5 -14 4 -15 -5 -2 -8 12 -14 5 -32 -34 -12 -27 -22 -59 -23
-72 0 -12 -4 -20 -7 -18 -16 9 -31 -168 -24 -286 10 -169 10 -167 3 -236 -9
-86 -68 -219 -122 -276 -57 -60 -134 -128 -145 -128 -6 0 -11 -4 -11 -10 0 -5
-7 -7 -15 -4 -9 4 -18 -2 -24 -17 -5 -13 -10 -18 -10 -10 -1 9 -7 11 -18 6
-89 -38 -253 -49 -345 -24 -24 6 -48 12 -54 13 -7 1 -18 7 -25 13 -23 18 -87
42 -95 35 -4 -4 -4 -2 -1 4 7 11 -19 29 -36 25 -5 -1 -6 3 -3 8 3 5 -8 21 -26
36 -94 79 -143 203 -143 360 0 110 27 215 72 282 23 34 23 36 6 57 -17 21 -17
21 2 4 19 -17 21 -17 60 21 22 22 71 56 109 77 61 33 80 38 153 42 98 5 153
-7 251 -55 55 -27 84 -48 114 -87 24 -30 47 -50 57 -48 12 2 13 1 3 -6 -7 -5
-10 -16 -6 -26 4 -12 9 -14 14 -7 3 7 7 -3 8 -21 13 -223 13 -232 -8 -293 -12
-33 -22 -65 -22 -72 -1 -7 -5 -10 -9 -7 -4 2 -10 -4 -13 -14 -14 -41 -142
-132 -188 -132 -9 0 -19 -4 -22 -8 -2 -4 -40 -5 -83 -1 -89 8 -199 50 -208 80
-9 27 -27 24 -21 -3 3 -13 3 -17 0 -10 -3 6 -10 9 -16 6 -6 -4 -6 2 1 14 9 17
6 30 -16 69 -23 42 -27 59 -27 133 0 88 12 131 57 198 44 67 161 98 246 68 40
-15 46 -15 53 -1 5 8 14 15 19 15 6 0 3 -8 -7 -17 -16 -16 -15 -19 13 -43 17
-14 36 -42 43 -64 17 -52 9 -150 -14 -175 -10 -11 -15 -25 -10 -32 4 -8 3 -10
-5 -5 -6 4 -24 0 -38 -9 -32 -21 -105 -16 -133 10 -30 27 -35 71 -14 116 18
37 40 56 28 24 -7 -18 0 -19 27 -5 48 26 -6 56 -61 34 -55 -22 -70 -47 -67
-109 2 -39 10 -62 30 -88 24 -32 33 -36 92 -42 103 -11 159 7 197 66 38 59 52
127 39 189 -13 59 -57 134 -73 124 -7 -4 -8 -3 -4 4 14 23 -115 72 -189 72
-60 0 -117 -17 -168 -48 -42 -27 -46 -38 -16 -47 11 -4 18 -9 16 -12 -3 -2
-14 0 -25 6 -17 9 -24 5 -47 -24 -14 -19 -23 -40 -20 -45 3 -6 1 -10 -5 -10
-7 0 -10 -6 -7 -14 3 -8 2 -16 -4 -18 -13 -4 -23 -126 -15 -182 4 -25 14 -53
22 -61 9 -8 13 -15 9 -15 -9 0 24 -59 44 -78 117 -110 130 -116 275 -117 167
0 183 5 279 89 64 56 125 164 131 230 2 20 6 39 10 43 3 3 6 22 6 42 0 27 -3
32 -10 21 -8 -13 -10 -13 -10 2 0 9 5 18 11 20 18 6 -24 155 -57 206 -20 30
-30 39 -37 30 -5 -9 -6 -6 -3 8 5 16 -4 30 -41 60 -60 50 -110 85 -126 88 -7
2 -19 6 -27 9 -50 19 -178 38 -219 33 -115 -16 -196 -40 -186 -56 3 -5 0 -8
-7 -5 -20 7 -126 -77 -165 -132 -84 -115 -114 -217 -110 -373 3 -99 7 -124 31
-182 16 -38 32 -65 37 -62 5 3 6 -2 3 -10 -3 -9 -2 -16 4 -16 6 0 13 6 15 13
4 9 6 8 6 -2 1 -11 4 -11 16 -1 19 16 20 3 1 -16 -11 -11 -16 -11 -19 -1 -4 8
-6 7 -6 -3 -1 -19 85 -114 97 -106 5 3 18 -1 28 -10 18 -14 18 -15 -4 -4 -12
6 -22 7 -22 3 0 -12 61 -44 71 -37 5 3 8 0 7 -6 -5 -21 117 -78 179 -85 32 -4
79 -9 104 -12 27 -3 56 0 69 7 17 9 21 9 15 0 -5 -8 -2 -10 11 -6 11 3 46 10
79 15 33 5 74 15 90 21 28 11 29 13 10 21 -16 8 -15 8 7 4 27 -5 98 28 98 46
0 5 8 9 17 9 38 0 204 205 207 255 0 13 5 21 10 17 5 -3 7 2 3 11 -3 10 -2 17
2 17 14 0 34 98 27 133 -5 24 -3 28 5 17 8 -11 8 11 3 80 -13 145 -11 277 5
363 8 42 18 77 22 77 7 0 21 41 24 70 1 8 16 39 33 67 17 29 30 59 28 65 -1 7
-1 10 1 6 3 -5 8 -8 12 -8 13 0 76 94 73 110 -2 13 -1 13 7 1 8 -12 16 -9 44
15 20 16 36 35 36 43 1 8 4 11 7 8 4 -4 19 2 33 12 14 10 43 24 65 31 29 9 35
15 25 22 -11 8 -10 9 4 4 25 -8 72 15 55 27 -9 6 -7 7 5 3 10 -3 49 1 85 10
78 18 233 20 312 4 30 -6 61 -13 68 -14 7 -1 18 -8 24 -14 7 -7 16 -12 21 -12
22 0 126 -57 185 -102 50 -38 67 -46 74 -36 7 9 8 7 4 -7 -4 -15 7 -34 42 -70
26 -28 63 -80 81 -117 19 -37 38 -65 43 -62 4 3 6 -1 3 -8 -3 -7 4 -38 15 -68
11 -30 20 -58 20 -61 0 -4 -29 -13 -65 -20 -36 -7 -65 -16 -65 -19 0 -4 -13
-5 -28 -2 -16 2 -98 -11 -183 -29 -85 -17 -166 -34 -181 -37 -15 -2 -25 -8
-22 -13 3 -5 -2 -6 -10 -3 -18 7 -34 -22 -20 -36 10 -10 98 1 224 28 41 8 82
16 90 18 8 1 35 6 60 12 25 5 82 17 128 27 117 23 132 30 132 60 0 32 -35 135
-70 205 -51 101 -157 231 -183 222 -5 -1 -6 1 -3 6 7 12 -38 53 -97 88 -27 16
-63 37 -79 47 -17 10 -37 16 -44 13 -8 -3 -13 0 -11 7 1 6 -9 13 -23 15 -14 2
-51 13 -83 23 -33 11 -78 20 -100 20 -23 0 -67 1 -97 3 -30 2 -66 2 -80 0z
m-103 -60 c-3 -3 -12 -4 -19 -1 -8 3 -5 6 6 6 11 1 17 -2 13 -5z m-90 -10 c-3
-3 -12 -4 -19 -1 -8 3 -5 6 6 6 11 1 17 -2 13 -5z m-57 -14 c0 -5 -5 -10 -11
-10 -5 0 -7 5 -4 10 3 6 8 10 11 10 2 0 4 -4 4 -10z m765 -60 c3 -5 2 -10 -4
-10 -5 0 -13 5 -16 10 -3 6 -2 10 4 10 5 0 13 -4 16 -10z m-865 -10 c0 -5 -5
-10 -11 -10 -5 0 -7 5 -4 10 3 6 8 10 11 10 2 0 4 -4 4 -10z m875 -20 c3 -6
-1 -7 -9 -4 -18 7 -21 14 -7 14 6 0 13 -4 16 -10z m65 -45 c-7 -9 -15 -13 -19
-10 -3 3 1 10 9 15 21 14 24 12 10 -5z m-1005 -5 c3 -5 1 -10 -4 -10 -6 0 -11
5 -11 10 0 6 2 10 4 10 3 0 8 -4 11 -10z m1050 -20 c3 -5 1 -10 -4 -10 -6 0
-11 5 -11 10 0 6 2 10 4 10 3 0 8 -4 11 -10z m-1125 -54 c0 -2 -8 -10 -17 -17
-16 -13 -17 -12 -4 4 13 16 21 21 21 13z m-40 -10 c0 -3 -4 -8 -10 -11 -5 -3
-10 -1 -10 4 0 6 5 11 10 11 6 0 10 -2 10 -4z m1239 -14 c7 -13 6 -19 -2 -19
-7 0 -13 9 -13 19 0 10 1 18 3 18 1 0 7 -8 12 -18z m-1269 -77 c0 -2 -9 -3
-19 -2 -11 0 -18 5 -15 9 4 6 34 0 34 -7z m-30 -39 c0 -3 -4 -8 -10 -11 -5 -3
-10 -1 -10 4 0 6 5 11 10 11 6 0 10 -2 10 -4z m1375 -26 c-3 -5 -12 -10 -18
-10 -7 0 -6 4 3 10 19 12 23 12 15 0z m-1412 -33 c3 -8 -1 -14 -8 -14 -7 0
-11 6 -8 14 3 7 6 13 8 13 2 0 5 -6 8 -13z m1441 -3 c3 -8 2 -12 -4 -9 -6 3
-10 1 -10 -6 0 -7 -2 -10 -5 -7 -5 5 4 38 10 38 2 0 6 -7 9 -16z m-2093 -72
c-7 -2 -18 1 -23 6 -8 8 -4 9 13 5 13 -4 18 -8 10 -11z m-226 -32 c3 -5 1 -10
-4 -10 -6 0 -11 5 -11 10 0 6 2 10 4 10 3 0 8 -4 11 -10z m-113 -42 c-7 -7
-12 -8 -12 -2 0 14 12 26 19 19 2 -3 -1 -11 -7 -17z m574 -24 c1 -9 0 -13 -4
-10 -3 4 -7 14 -8 22 -1 9 0 13 4 10 3 -4 7 -14 8 -22z m-581 -4 c3 -5 1 -10
-4 -10 -6 0 -11 5 -11 10 0 6 2 10 4 10 3 0 8 -4 11 -10z m-70 -30 c-3 -5 2
-10 11 -10 10 0 15 -3 11 -6 -10 -10 -39 5 -32 16 3 5 8 10 11 10 3 0 2 -4 -1
-10z m1005 -55 c0 -5 -5 -3 -10 5 -5 8 -10 20 -10 25 0 6 5 3 10 -5 5 -8 10
-19 10 -25z m1127 -1 c-3 -3 -12 -4 -19 -1 -8 3 -5 6 6 6 11 1 17 -2 13 -5z
m-161 -26 c-12 -7 -21 -7 -28 0 -6 6 0 10 18 10 23 0 24 -2 10 -10z m-1732
-16 c2 -4 -7 -8 -22 -9 -24 -2 -24 -1 -7 7 11 5 21 9 22 9 1 1 4 -3 7 -7z
m-49 -32 c3 -6 -1 -7 -9 -4 -18 7 -21 14 -7 14 6 0 13 -4 16 -10z m593 -21
c-3 -8 -7 -3 -11 10 -4 17 -3 21 5 13 5 -5 8 -16 6 -23z m-181 -171 c-3 -8 -6
-5 -6 6 -1 11 2 17 5 13 3 -3 4 -12 1 -19z m-520 -60 c-3 -7 -5 -2 -5 12 0 14
2 19 5 13 2 -7 2 -19 0 -25z m517 24 c3 -5 -1 -9 -9 -9 -8 0 -12 4 -9 9 3 4 7
8 9 8 2 0 6 -4 9 -8z m-317 -54 c-3 -7 -5 -2 -5 12 0 14 2 19 5 13 2 -7 2 -19
0 -25z m293 19 c0 -7 -6 -21 -13 -32 -11 -14 -16 -15 -22 -5 -6 9 -4 11 5 5
10 -6 12 -4 7 9 -4 10 -3 15 3 11 6 -3 10 1 10 9 0 9 2 16 5 16 3 0 5 -6 5
-13z m427 -39 c-3 -8 -6 -5 -6 6 -1 11 2 17 5 13 3 -3 4 -12 1 -19z m-242 -38
c-4 -17 -9 -30 -11 -27 -2 2 -1 18 2 36 4 17 9 30 11 27 3 -2 2 -19 -2 -36z
m-668 8 c-3 -8 -6 -5 -6 6 -1 11 2 17 5 13 3 -3 4 -12 1 -19z m-220 -20 c-3
-8 -6 -5 -6 6 -1 11 2 17 5 13 3 -3 4 -12 1 -19z m235 -10 c-8 -8 -9 -4 -5 13
4 13 8 18 11 10 2 -7 -1 -18 -6 -23z m-205 -20 c-3 -8 -6 -5 -6 6 -1 11 2 17
5 13 3 -3 4 -12 1 -19z m1075 -10 c-8 -8 -9 -4 -5 13 4 13 8 18 11 10 2 -7 -1
-18 -6 -23z m-858 -14 c3 -8 2 -12 -4 -9 -6 3 -10 10 -10 16 0 14 7 11 14 -7z
m23 -36 c-3 -8 -6 -5 -6 6 -1 11 2 17 5 13 3 -3 4 -12 1 -19z m782 -68 c-13
-16 -25 -28 -27 -25 -5 5 37 55 45 55 2 0 -6 -13 -18 -30z m-682 -25 c0 -8 -4
-12 -9 -9 -5 3 -6 10 -3 15 9 13 12 11 12 -6z m260 -31 c-3 -3 -12 -4 -19 -1
-8 3 -5 6 6 6 11 1 17 -2 13 -5z m383 -14 c0 -5 -2 -10 -4 -10 -3 0 -8 5 -11
10 -3 6 -1 10 4 10 6 0 11 -4 11 -10z m-850 -30 c0 -5 -2 -10 -4 -10 -3 0 -8
5 -11 10 -3 6 -1 10 4 10 6 0 11 -4 11 -10z m810 5 c0 -2 -10 -10 -22 -16 -21
-11 -22 -11 -9 4 13 16 31 23 31 12z m-790 -25 c-8 -5 -19 -10 -25 -10 -5 0
-3 5 5 10 8 5 20 10 25 10 6 0 3 -5 -5 -10z m573 -127 c-7 -2 -19 -2 -25 0 -7
3 -2 5 12 5 14 0 19 -2 13 -5z m-68 -13 c-3 -5 -12 -10 -18 -10 -7 0 -6 4 3
10 19 12 23 12 15 0z m-145 -14 c0 -2 -7 -7 -16 -10 -8 -3 -12 -2 -9 4 6 10
25 14 25 6z"/>
<path d="M1912 1945 c-176 -39 -357 -192 -412 -347 l-13 -36 58 -54 c62 -57
74 -65 148 -97 151 -67 313 -67 449 -1 23 11 47 20 54 20 21 0 151 133 192
198 56 86 60 114 28 157 -30 40 -178 132 -243 151 -71 21 -189 26 -261 9z
m265 -77 c66 -21 103 -43 169 -99 l32 -27 -19 -42 c-23 -50 -113 -166 -141
-181 -16 -8 -23 -8 -29 2 -6 9 -3 15 6 17 21 5 30 45 29 122 -1 67 -20 115
-67 168 -20 22 -44 31 -32 12 4 -6 -1 -7 -11 -3 -13 5 -14 8 -5 11 10 3 7 10
-10 23 -34 26 -8 25 78 -3z m-246 -57 c40 -40 39 -82 -1 -123 -26 -25 -36 -29
-63 -24 -39 7 -77 48 -77 84 0 34 55 92 88 92 13 0 37 -13 53 -29z m-150 -23
c-10 -11 -11 -10 -6 5 4 9 3 17 -3 17 -5 0 -20 -24 -33 -52 -45 -103 -25 -212
54 -295 27 -29 28 -33 11 -33 -51 0 -244 118 -244 149 0 33 86 152 146 201 51
43 61 47 74 35 11 -12 12 -17 1 -27z m427 -83 c-3 -3 -9 2 -12 12 -6 14 -5 15
5 6 7 -7 10 -15 7 -18z"/>
<path d="M1325 920 c-6 -10 29 -111 47 -136 4 -6 14 -28 22 -50 8 -21 20 -52
26 -69 7 -16 14 -39 15 -50 1 -11 7 -51 13 -90 16 -96 14 -228 -3 -299 -8 -33
-12 -63 -9 -67 2 -4 -1 -9 -6 -11 -7 -2 -5 -11 4 -23 12 -16 18 -18 33 -9 29
18 45 91 50 235 6 145 -6 227 -49 354 -33 95 -58 141 -70 124 -7 -10 -8 -9 -4
7 4 11 -1 29 -9 40 -11 14 -14 15 -9 3 3 -10 1 -20 -4 -23 -5 -3 -8 7 -6 22 4
39 -25 68 -41 42z m59 -106 c3 -8 2 -12 -4 -9 -6 3 -10 10 -10 16 0 14 7 11
14 -7z m44 -59 c-3 -3 -9 2 -12 12 -6 14 -5 15 5 6 7 -7 10 -15 7 -18z m30
-66 c-3 -8 -7 -3 -11 10 -4 17 -3 21 5 13 5 -5 8 -16 6 -23z m-19 -19 c0 -10
-3 -8 -9 5 -12 27 -12 43 0 25 5 -8 9 -22 9 -30z m59 -376 c-3 -14 -5 -12 -10
9 -3 19 -2 25 4 19 6 -6 8 -18 6 -28z m-11 -96 c-3 -8 -6 -5 -6 6 -1 11 2 17
5 13 3 -3 4 -12 1 -19z m-22 -58 c3 -5 1 -10 -4 -10 -6 0 -11 5 -11 10 0 6 2
10 4 10 3 0 8 -4 11 -10z"/>
<path d="M1994 552 c-33 -22 -69 -214 -61 -331 7 -102 19 -141 46 -141 35 0
42 21 31 106 -11 87 -1 202 27 291 13 43 13 56 3 68 -14 16 -29 19 -46 7z"/>
</g>
</svg>
